<svg width="124" height="79" viewBox="0 0 124 79" fill="none" xmlns="http://www.w3.org/2000/svg">
<rect width="124" height="79" fill="white"/>
<mask id="path-2-outside-1_1_5" maskUnits="userSpaceOnUse" x="18" y="21" width="89" height="38" fill="black">
<rect fill="white" x="18" y="21" width="89" height="38"/>
<path d="M19.504 57V23.4H32.848C34.896 23.4 36.72 23.816 38.32 24.648C39.952 25.448 41.216 26.6 42.112 28.104C43.04 29.576 43.504 31.352 43.504 33.432V34.056C43.504 36.136 43.024 37.928 42.064 39.432C41.136 40.936 39.872 42.088 38.272 42.888C36.672 43.688 34.864 44.088 32.848 44.088H24.688V57H19.504ZM24.688 39.384H32.32C34.144 39.384 35.6 38.904 36.688 37.944C37.776 36.984 38.32 35.672 38.32 34.008V33.528C38.32 31.832 37.776 30.504 36.688 29.544C35.6 28.584 34.144 28.104 32.32 28.104H24.688V39.384Z"/>
<path d="M46.9904 57V52.392H51.5024V28.008H46.9904V23.4H64.0304C66.0464 23.4 67.8064 23.752 69.3104 24.456C70.8144 25.128 71.9824 26.104 72.8144 27.384C73.6784 28.632 74.1104 30.12 74.1104 31.848V32.328C74.1104 33.864 73.8224 35.128 73.2464 36.12C72.6704 37.112 71.9664 37.88 71.1344 38.424C70.3344 38.968 69.5664 39.352 68.8304 39.576V40.344C69.5664 40.536 70.3504 40.92 71.1824 41.496C72.0464 42.04 72.7664 42.808 73.3424 43.8C73.9504 44.792 74.2544 46.088 74.2544 47.688V48.168C74.2544 50.024 73.8224 51.608 72.9584 52.92C72.0944 54.232 70.8944 55.24 69.3584 55.944C67.8544 56.648 66.1104 57 64.1264 57H46.9904ZM56.7344 52.296H63.5024C65.2304 52.296 66.5904 51.88 67.5824 51.048C68.5744 50.216 69.0704 49.064 69.0704 47.592V47.16C69.0704 45.688 68.5744 44.536 67.5824 43.704C66.6224 42.872 65.2624 42.456 63.5024 42.456H56.7344V52.296ZM56.7344 37.704H63.5024C65.1344 37.704 66.4464 37.304 67.4384 36.504C68.4304 35.672 68.9264 34.552 68.9264 33.144V32.664C68.9264 31.256 68.4304 30.152 67.4384 29.352C66.4784 28.52 65.1664 28.104 63.5024 28.104H56.7344V37.704ZM91.7305 57.672C89.3305 57.672 87.1865 57.16 85.2985 56.136C83.4105 55.08 81.9225 53.544 80.8345 51.528C79.7465 49.512 79.2025 47.048 79.2025 44.136V36.264C79.2025 31.88 80.4025 28.536 82.8025 26.232C85.2025 23.896 88.4505 22.728 92.5465 22.728C96.5785 22.728 99.6825 23.832 101.859 26.04C104.035 28.216 105.123 31.144 105.123 34.824V35.064H99.9865V34.68C99.9865 33.304 99.7145 32.072 99.1705 30.984C98.6265 29.864 97.8105 28.984 96.7225 28.344C95.6345 27.704 94.2425 27.384 92.5465 27.384C89.9865 27.384 87.9865 28.168 86.5465 29.736C85.1065 31.272 84.3865 33.416 84.3865 36.168V44.232C84.3865 46.952 85.1065 49.112 86.5465 50.712C87.9865 52.28 90.0025 53.064 92.5945 53.064C95.1545 53.064 97.0265 52.36 98.2105 50.952C99.3945 49.544 99.9865 47.72 99.9865 45.48V44.856H90.9625V40.392H105.123V57H100.323V53.592H99.5545C99.2665 54.2 98.8345 54.824 98.2585 55.464C97.7145 56.104 96.9145 56.632 95.8585 57.048C94.8345 57.464 93.4585 57.672 91.7305 57.672Z"/>
</mask>
<path d="M19.504 57H18.504V58H19.504V57ZM19.504 23.4V22.4H18.504V23.4H19.504ZM38.32 24.648L37.8586 25.5352L37.8692 25.5407L37.8798 25.5459L38.32 24.648ZM42.112 28.104L41.2529 28.6158L41.2594 28.6266L41.2661 28.6373L42.112 28.104ZM42.064 39.432L41.2211 38.894L41.217 38.9004L41.213 38.9069L42.064 39.432ZM38.272 42.888L38.7192 43.7824L38.7192 43.7824L38.272 42.888ZM24.688 44.088V43.088H23.688V44.088H24.688ZM24.688 57V58H25.688V57H24.688ZM24.688 39.384H23.688V40.384H24.688V39.384ZM36.688 29.544L36.0264 30.2938L36.0264 30.2938L36.688 29.544ZM24.688 28.104V27.104H23.688V28.104H24.688ZM20.504 57V23.4H18.504V57H20.504ZM19.504 24.4H32.848V22.4H19.504V24.4ZM32.848 24.4C34.7574 24.4 36.4194 24.7868 37.8586 25.5352L38.7814 23.7608C37.0206 22.8452 35.0346 22.4 32.848 22.4V24.4ZM37.8798 25.5459C39.3447 26.264 40.4601 27.285 41.2529 28.6158L42.9711 27.5922C41.9719 25.915 40.5593 24.632 38.7602 23.7501L37.8798 25.5459ZM41.2661 28.6373C42.0752 29.9208 42.504 31.5035 42.504 33.432H44.504C44.504 31.2005 44.0048 29.2312 42.9579 27.5707L41.2661 28.6373ZM42.504 33.432V34.056H44.504V33.432H42.504ZM42.504 34.056C42.504 35.9776 42.0624 37.5758 41.2211 38.894L42.9069 39.97C43.9856 38.2802 44.504 36.2944 44.504 34.056H42.504ZM41.213 38.9069C40.3839 40.2506 39.2606 41.2757 37.8248 41.9936L38.7192 43.7824C40.4834 42.9003 41.8881 41.6214 42.915 39.9571L41.213 38.9069ZM37.8248 41.9936C36.3804 42.7158 34.7286 43.088 32.848 43.088V45.088C34.9994 45.088 36.9636 44.6602 38.7192 43.7824L37.8248 41.9936ZM32.848 43.088H24.688V45.088H32.848V43.088ZM23.688 44.088V57H25.688V44.088H23.688ZM24.688 56H19.504V58H24.688V56ZM24.688 40.384H32.32V38.384H24.688V40.384ZM32.32 40.384C34.3228 40.384 36.0356 39.8533 37.3496 38.6938L36.0264 37.1942C35.1645 37.9547 33.9652 38.384 32.32 38.384V40.384ZM37.3496 38.6938C38.6854 37.5152 39.32 35.9123 39.32 34.008H37.32C37.32 35.4317 36.8666 36.4528 36.0264 37.1942L37.3496 38.6938ZM39.32 34.008V33.528H37.32V34.008H39.32ZM39.32 33.528C39.32 31.5984 38.6898 29.9767 37.3496 28.7942L36.0264 30.2938C36.8622 31.0313 37.32 32.0655 37.32 33.528H39.32ZM37.3496 28.7942C36.0356 27.6347 34.3228 27.104 32.32 27.104V29.104C33.9652 29.104 35.1644 29.5333 36.0264 30.2938L37.3496 28.7942ZM32.32 27.104H24.688V29.104H32.32V27.104ZM23.688 28.104V39.384H25.688V28.104H23.688ZM46.9904 57H45.9904V58H46.9904V57ZM46.9904 52.392V51.392H45.9904V52.392H46.9904ZM51.5024 52.392V53.392H52.5024V52.392H51.5024ZM51.5024 28.008H52.5024V27.008H51.5024V28.008ZM46.9904 28.008H45.9904V29.008H46.9904V28.008ZM46.9904 23.4V22.4H45.9904V23.4H46.9904ZM69.3104 24.456L68.8864 25.3617L68.8944 25.3654L68.9024 25.369L69.3104 24.456ZM72.8144 27.384L71.9759 27.929L71.9839 27.9412L71.9922 27.9532L72.8144 27.384ZM73.2464 36.12L72.3816 35.6179L72.3816 35.6179L73.2464 36.12ZM71.1344 38.424L70.5871 37.587L70.5796 37.592L70.5721 37.5971L71.1344 38.424ZM68.8304 39.576L68.5392 38.6193L67.8304 38.8351V39.576H68.8304ZM68.8304 40.344H67.8304V41.1166L68.578 41.3116L68.8304 40.344ZM71.1824 41.496L70.6132 42.3182L70.6311 42.3306L70.6496 42.3422L71.1824 41.496ZM73.3424 43.8L72.4776 44.3021L72.4836 44.3124L72.4898 44.3226L73.3424 43.8ZM72.9584 52.92L72.1232 52.37L72.1232 52.37L72.9584 52.92ZM69.3584 55.944L68.9417 55.0349L68.9344 55.0383L69.3584 55.944ZM56.7344 52.296H55.7344V53.296H56.7344V52.296ZM67.5824 51.048L66.9398 50.2818L66.9398 50.2818L67.5824 51.048ZM67.5824 43.704L66.9274 44.4597L66.9336 44.465L66.9398 44.4702L67.5824 43.704ZM56.7344 42.456V41.456H55.7344V42.456H56.7344ZM56.7344 37.704H55.7344V38.704H56.7344V37.704ZM67.4384 36.504L68.0661 37.2824L68.0736 37.2764L68.081 37.2702L67.4384 36.504ZM67.4384 29.352L66.7834 30.1077L66.7968 30.1193L66.8106 30.1304L67.4384 29.352ZM56.7344 28.104V27.104H55.7344V28.104H56.7344ZM47.9904 57V52.392H45.9904V57H47.9904ZM46.9904 53.392H51.5024V51.392H46.9904V53.392ZM52.5024 52.392V28.008H50.5024V52.392H52.5024ZM51.5024 27.008H46.9904V29.008H51.5024V27.008ZM47.9904 28.008V23.4H45.9904V28.008H47.9904ZM46.9904 24.4H64.0304V22.4H46.9904V24.4ZM64.0304 24.4C65.9306 24.4 67.5404 24.7316 68.8864 25.3617L69.7343 23.5503C68.0723 22.7723 66.1621 22.4 64.0304 22.4V24.4ZM68.9024 25.369C70.245 25.9689 71.2573 26.8234 71.9759 27.929L73.6528 26.839C72.7074 25.3846 71.3838 24.2871 69.7183 23.543L68.9024 25.369ZM71.9922 27.9532C72.7249 29.0115 73.1104 30.2943 73.1104 31.848H75.1104C75.1104 29.9457 74.6319 28.2525 73.6366 26.8148L71.9922 27.9532ZM73.1104 31.848V32.328H75.1104V31.848H73.1104ZM73.1104 32.328C73.1104 33.7454 72.8439 34.8216 72.3816 35.6179L74.1112 36.6221C74.8008 35.4344 75.1104 33.9826 75.1104 32.328H73.1104ZM72.3816 35.6179C71.8718 36.4958 71.2699 37.1406 70.5871 37.587L71.6816 39.261C72.6629 38.6194 73.4689 37.7282 74.1112 36.6221L72.3816 35.6179ZM70.5721 37.5971C69.835 38.0983 69.1577 38.4311 68.5392 38.6193L69.1215 40.5327C69.975 40.2729 70.8338 39.8377 71.6967 39.2509L70.5721 37.5971ZM67.8304 39.576V40.344H69.8304V39.576H67.8304ZM68.578 41.3116C69.1701 41.4661 69.8475 41.7881 70.6132 42.3182L71.7516 40.6738C70.8532 40.0519 69.9626 39.6059 69.0828 39.3764L68.578 41.3116ZM70.6496 42.3422C71.3606 42.7899 71.9726 43.4325 72.4776 44.3021L74.2072 43.2979C73.5601 42.1835 72.7322 41.2901 71.7152 40.6498L70.6496 42.3422ZM72.4898 44.3226C72.9717 45.1089 73.2544 46.2059 73.2544 47.688H75.2544C75.2544 45.9701 74.929 44.4751 74.195 43.2774L72.4898 44.3226ZM73.2544 47.688V48.168H75.2544V47.688H73.2544ZM73.2544 48.168C73.2544 49.8646 72.8614 51.2491 72.1232 52.37L73.7935 53.47C74.7834 51.9669 75.2544 50.1834 75.2544 48.168H73.2544ZM72.1232 52.37C71.3701 53.5136 70.3207 54.4029 68.9417 55.0349L69.775 56.8531C71.468 56.0771 72.8186 54.9504 73.7935 53.47L72.1232 52.37ZM68.9344 55.0383C67.5865 55.6693 65.992 56 64.1264 56V58C66.2287 58 68.1223 57.6267 69.7823 56.8497L68.9344 55.0383ZM64.1264 56H46.9904V58H64.1264V56ZM56.7344 53.296H63.5024V51.296H56.7344V53.296ZM63.5024 53.296C65.3862 53.296 67.0004 52.8413 68.225 51.8142L66.9398 50.2818C66.1804 50.9187 65.0745 51.296 63.5024 51.296V53.296ZM68.225 51.8142C69.4761 50.7648 70.0704 49.3143 70.0704 47.592H68.0704C68.0704 48.8137 67.6726 49.6672 66.9398 50.2818L68.225 51.8142ZM70.0704 47.592V47.16H68.0704V47.592H70.0704ZM70.0704 47.16C70.0704 45.4377 69.4761 43.9872 68.225 42.9378L66.9398 44.4702C67.6726 45.0848 68.0704 45.9383 68.0704 47.16H70.0704ZM68.2373 42.9483C67.036 41.9072 65.4104 41.456 63.5024 41.456V43.456C65.1143 43.456 66.2087 43.8368 66.9274 44.4597L68.2373 42.9483ZM63.5024 41.456H56.7344V43.456H63.5024V41.456ZM55.7344 42.456V52.296H57.7344V42.456H55.7344ZM56.7344 38.704H63.5024V36.704H56.7344V38.704ZM63.5024 38.704C65.2977 38.704 66.8515 38.2619 68.0661 37.2824L66.8106 35.7256C66.0412 36.3461 64.9711 36.704 63.5024 36.704V38.704ZM68.081 37.2702C69.3211 36.2301 69.9264 34.8183 69.9264 33.144H67.9264C67.9264 34.2857 67.5396 35.1139 66.7958 35.7378L68.081 37.2702ZM69.9264 33.144V32.664H67.9264V33.144H69.9264ZM69.9264 32.664C69.9264 30.9897 69.3202 29.585 68.0661 28.5736L66.8106 30.1304C67.5405 30.719 67.9264 31.5223 67.9264 32.664H69.9264ZM68.0933 28.5963C66.9013 27.5633 65.3311 27.104 63.5024 27.104V29.104C65.0017 29.104 66.0554 29.4767 66.7834 30.1077L68.0933 28.5963ZM63.5024 27.104H56.7344V29.104H63.5024V27.104ZM55.7344 28.104V37.704H57.7344V28.104H55.7344ZM85.2985 56.136L84.8103 57.0088L84.8217 57.015L85.2985 56.136ZM80.8345 51.528L81.7145 51.0531L81.7145 51.0531L80.8345 51.528ZM82.8025 26.232L83.495 26.9534L83.5 26.9486L82.8025 26.232ZM101.859 26.04L101.146 26.7419L101.151 26.7471L101.859 26.04ZM105.123 35.064V36.064H106.123V35.064H105.123ZM99.9865 35.064H98.9865V36.064H99.9865V35.064ZM99.1705 30.984L98.2709 31.4209L98.2761 31.4312L99.1705 30.984ZM96.7225 28.344L96.2155 29.2059L96.2155 29.2059L96.7225 28.344ZM86.5465 29.736L87.2761 30.42L87.283 30.4124L86.5465 29.736ZM86.5465 50.712L85.8032 51.381L85.81 51.3884L86.5465 50.712ZM99.9865 44.856H100.987V43.856H99.9865V44.856ZM90.9625 44.856H89.9625V45.856H90.9625V44.856ZM90.9625 40.392V39.392H89.9625V40.392H90.9625ZM105.123 40.392H106.123V39.392H105.123V40.392ZM105.123 57V58H106.123V57H105.123ZM100.323 57H99.3225V58H100.323V57ZM100.323 53.592H101.323V52.592H100.323V53.592ZM99.5545 53.592V52.592H98.9217L98.6508 53.1639L99.5545 53.592ZM98.2585 55.464L97.5152 54.795L97.5057 54.8056L97.4966 54.8164L98.2585 55.464ZM95.8585 57.048L95.492 56.1175L95.4821 56.1215L95.8585 57.048ZM91.7305 56.672C89.4771 56.672 87.5004 56.1926 85.7753 55.257L84.8217 57.015C86.8726 58.1274 89.1839 58.672 91.7305 58.672V56.672ZM85.7867 55.2632C84.0744 54.3055 82.7179 52.9123 81.7145 51.0531L79.9545 52.0029C81.1271 54.1757 82.7466 55.8545 84.8103 57.0088L85.7867 55.2632ZM81.7145 51.0531C80.7238 49.2173 80.2025 46.9261 80.2025 44.136H78.2025C78.2025 47.1699 78.7692 49.8067 79.9545 52.0029L81.7145 51.0531ZM80.2025 44.136V36.264H78.2025V44.136H80.2025ZM80.2025 36.264C80.2025 32.062 81.3483 29.0143 83.495 26.9534L82.11 25.5106C79.4567 28.0577 78.2025 31.698 78.2025 36.264H80.2025ZM83.5 26.9486C85.6734 24.8331 88.6495 23.728 92.5465 23.728V21.728C88.2515 21.728 84.7316 22.9588 82.105 25.5154L83.5 26.9486ZM92.5465 23.728C96.3948 23.728 99.21 24.7772 101.146 26.7419L102.571 25.3381C100.155 22.8868 96.7622 21.728 92.5465 21.728V23.728ZM101.151 26.7471C103.104 28.6996 104.123 31.3536 104.123 34.824H106.123C106.123 30.9344 104.965 27.7324 102.566 25.3329L101.151 26.7471ZM104.123 34.824V35.064H106.123V34.824H104.123ZM105.123 34.064H99.9865V36.064H105.123V34.064ZM100.987 35.064V34.68H98.9865V35.064H100.987ZM100.987 34.68C100.987 33.1693 100.687 31.7809 100.065 30.5368L98.2761 31.4312C98.742 32.3631 98.9865 33.4387 98.9865 34.68H100.987ZM100.07 30.5471C99.4387 29.2473 98.4849 28.2205 97.2295 27.4821L96.2155 29.2059C97.1361 29.7475 97.8143 30.4807 98.271 31.4209L100.07 30.5471ZM97.2295 27.4821C95.9438 26.7258 94.3616 26.384 92.5465 26.384V28.384C94.1234 28.384 95.3252 28.6822 96.2155 29.2059L97.2295 27.4821ZM92.5465 26.384C89.768 26.384 87.4773 27.2441 85.81 29.0596L87.283 30.4124C88.4957 29.0919 90.205 28.384 92.5465 28.384V26.384ZM85.817 29.0521C84.1551 30.8247 83.3865 33.2423 83.3865 36.168H85.3865C85.3865 33.5897 86.0579 31.7193 87.276 30.4199L85.817 29.0521ZM83.3865 36.168V44.232H85.3865V36.168H83.3865ZM83.3865 44.232C83.3865 47.1316 84.1578 49.5527 85.8032 51.381L87.2898 50.043C86.0552 48.6713 85.3865 46.7724 85.3865 44.232H83.3865ZM85.81 51.3884C87.4797 53.2065 89.7883 54.064 92.5945 54.064V52.064C90.2167 52.064 88.4933 51.3535 87.283 50.0356L85.81 51.3884ZM92.5945 54.064C95.3288 54.064 97.5358 53.3081 98.9759 51.5956L97.4451 50.3084C96.5172 51.4119 94.9802 52.064 92.5945 52.064V54.064ZM98.9759 51.5956C100.342 49.9705 100.987 47.9022 100.987 45.48H98.9865C98.9865 47.5378 98.4465 49.1175 97.4451 50.3084L98.9759 51.5956ZM100.987 45.48V44.856H98.9865V45.48H100.987ZM99.9865 43.856H90.9625V45.856H99.9865V43.856ZM91.9625 44.856V40.392H89.9625V44.856H91.9625ZM90.9625 41.392H105.123V39.392H90.9625V41.392ZM104.123 40.392V57H106.123V40.392H104.123ZM105.123 56H100.323V58H105.123V56ZM101.323 57V53.592H99.3225V57H101.323ZM100.323 52.592H99.5545V54.592H100.323V52.592ZM98.6508 53.1639C98.414 53.6637 98.0435 54.208 97.5152 54.795L99.0018 56.133C99.6255 55.44 100.119 54.7363 100.458 54.0201L98.6508 53.1639ZM97.4966 54.8164C97.0899 55.2948 96.4463 55.7416 95.492 56.1176L96.225 57.9784C97.3827 57.5224 98.3391 56.9132 99.0204 56.1116L97.4966 54.8164ZM95.4821 56.1215C94.6257 56.4694 93.3942 56.672 91.7305 56.672V58.672C93.5228 58.672 95.0433 58.4586 96.2349 57.9745L95.4821 56.1215Z" fill="#B98201" mask="url(#path-2-outside-1_1_5)"/>
</svg>
